<?xml version="1.0" encoding="UTF-8"?>
<!DOCTYPE svg  PUBLIC '-//W3C//DTD SVG 1.1//EN'  'http://www.w3.org/Graphics/SVG/1.1/DTD/svg11.dtd'>
<svg clip-rule="evenodd" fill-rule="evenodd" stroke-linejoin="round" stroke-miterlimit="2" version="1.1" viewBox="0 0 512 512" xml:space="preserve" xmlns="http://www.w3.org/2000/svg"><path d="m473.3-1.353c20.88 0 37.885 16.533 37.885 36.926v438.25c0 20.393-17.005 36.954-37.885 36.954h-436.46c-20.839 0-37.773-16.561-37.773-36.954v-438.25c0-20.393 16.934-36.926 37.773-36.926h436.46zm-37.829 436.39v-134.03c0-65.822-14.212-116.43-91.12-116.43-36.955 0-61.739 20.263-71.867 39.476h-1.04v-33.411h-72.811v244.4h75.866v-120.88c0-31.883 6.031-62.773 45.554-62.773 38.981 0 39.468 36.461 39.468 64.802v118.85h75.95zm-284.49-244.4h-76.034v244.4h76.034v-244.4zm-37.997-121.49c-24.395 0-44.066 19.735-44.066 44.047 0 24.318 19.671 44.052 44.066 44.052 24.299 0 44.026-19.734 44.026-44.052 0-24.312-19.727-44.047-44.026-44.047z" fill-rule="nonzero"/></svg>
