<?xml version="1.0" encoding="UTF-8"?>
<svg enable-background="new 0 0 128 128" version="1.1" viewBox="0 0 128 128" xml:space="preserve" xmlns="http://www.w3.org/2000/svg"><style type="text/css">
	.st0{fill:#FFFFFF;}
</style><circle cx="64" cy="64" r="64"/><path class="st0" d="m32.5 43h71.5c0-2.2-1.8-4-4-4h-52.5l-1.3-2.1c-0.7-1.2-2-1.9-3.4-1.9h-14.8c-2.2 0-4 1.8-4 4v45.7l4.6-38.1c0.2-2.1 1.9-3.6 3.9-3.6z"/><path class="st0" d="m108.5 47h-72c-2 0-3.7 1.5-4 3.5l-5 42c-0.3 2.4 1.6 4.5 4 4.5h71.9c2 0 3.7-1.5 4-3.5l5-42c0.3-2.4-1.5-4.5-3.9-4.5z"/></svg>